<svg width="64" height="64" viewBox="0 0 64 64" fill="none" xmlns="http://www.w3.org/2000/svg">
<rect width="64" height="64" rx="10.6667" fill="#FEFEFD"/>
<path d="M19.4307 17.4092L20.0957 16.2578L20.4131 16.4404L19.748 17.5908L21.6016 16.5215L21.7842 16.8379L19.9277 17.9102H22.2539V18.2764H19.9316L21.082 18.9404L20.8994 19.2578L19.7461 18.5918L20.8174 20.4463L20.501 20.6289L19.4307 18.7754V21.0996H19.0645V18.7754L18.3994 19.9277L18.082 19.7451L18.7471 18.5908L16.8936 19.6621L16.7109 19.3447L18.5615 18.2764H16.2402V17.9102H18.5654L17.4121 17.2441L17.5947 16.9277L18.7471 17.5918L17.6768 15.7383L17.9941 15.5557L19.0645 17.4092V15.0859H19.4307V17.4092Z" fill="#FF6400"/>
<rect x="22.4941" y="14.8438" width="25.5053" height="6.49479" fill="#003223"/>
<path d="M31.6445 49.1516C28.484 49.1516 25.7343 48.4563 23.3956 47.0657C21.0568 45.6435 19.2395 43.6682 17.9437 41.1398C16.6479 38.5798 16 35.6089 16 32.2272L16 21.3379H22.4948L22.4948 32.2272C22.4948 34.6291 22.8899 36.6677 23.68 38.3427C24.4701 40.0178 25.5921 41.2978 27.0459 42.1827C28.5314 43.0361 30.2696 43.4627 32.2608 43.4627C35.1684 43.4627 37.365 42.6884 38.8504 41.1398C40.3674 39.5595 41.2682 37.521 41.5526 35.0242H33.3985V30.2361H48V48.5827H42.0741L41.6 44.3635C40.9047 45.4064 40.083 46.2914 39.1348 47.0183C38.2183 47.7136 37.1437 48.2351 35.9111 48.5827C34.6785 48.962 33.2563 49.1516 31.6445 49.1516Z" fill="#8CC74F"/>
</svg>
