<svg width="120" height="120" viewBox="0 0 120 120" fill="none" xmlns="http://www.w3.org/2000/svg">
<path d="M63.3799 47.3701L75.6699 26.084L81.5273 29.4658L69.2256 50.7715L103.492 30.9883L106.874 36.8457L72.6221 56.6211H115.555V63.3848H72.6494L93.9062 75.6572L90.5244 81.5146L69.2471 69.2295L89.0166 103.471L83.1592 106.853L63.3799 72.5928V115.549H56.6162V72.6123L44.3291 93.8945L38.4717 90.5127L50.7471 69.25L16.5059 89.0195L13.124 83.1621L47.3799 63.3848H4.44336V56.6211H47.4082L26.0957 44.3164L29.4775 38.459L50.7686 50.751L30.9854 16.4844L36.8428 13.1025L56.6162 47.3506V4.4375H63.3799V47.3701Z" fill="#FF6400"/>
</svg>
